<?xml version="1.0" encoding="UTF-8" standalone="no"?>
<!DOCTYPE svg PUBLIC "-//W3C//DTD SVG 1.1//EN" "http://www.w3.org/Graphics/SVG/1.1/DTD/svg11.dtd">
<!-- 由 Microsoft Visio, SVG Export 生成 Unity MonoBehaviour Main Lifecycle.svg Page-1 -->
<svg xmlns="http://www.w3.org/2000/svg" xmlns:xlink="http://www.w3.org/1999/xlink" xmlns:ev="http://www.w3.org/2001/xml-events"
		width="6.33934in" height="6.85114in" viewBox="0 0 456.432 493.282" xml:space="preserve" color-interpolation-filters="sRGB"
		class="st19">
	<style type="text/css">
	<![CDATA[
		.st1 {fill:#ffffff;stroke:#000000;stroke-dasharray:5.25,3.75;stroke-linecap:round;stroke-linejoin:round;stroke-width:0.75}
		.st2 {fill:#000000;font-family:Consolas;font-size:0.833336em}
		.st3 {fill:#ffffff;stroke:#000000;stroke-linecap:round;stroke-linejoin:round;stroke-width:0.75}
		.st4 {stroke:#000000;stroke-linecap:round;stroke-linejoin:round;stroke-width:0.75}
		.st5 {marker-end:url(#mrkr5-34);stroke:#000000;stroke-linecap:round;stroke-linejoin:round;stroke-width:0.75}
		.st6 {fill:#000000;fill-opacity:1;stroke:#000000;stroke-opacity:1;stroke-width:0.22935779816514}
		.st7 {fill:#ffffff;stroke:none;stroke-linecap:butt;stroke-width:7.2}
		.st8 {fill:#000000;font-family:Consolas;font-size:0.666664em}
		.st9 {font-size:1em}
		.st10 {fill:none;stroke:none;stroke-linecap:round;stroke-linejoin:round;stroke-width:0.75}
		.st11 {fill:#7f7f7f;font-family:Consolas;font-size:0.75em}
		.st12 {fill:#d8d8d8;stroke:#000000;stroke-linecap:round;stroke-linejoin:round;stroke-width:0.75}
		.st13 {fill:#7f7f7f;font-family:Consolas;font-size:0.833336em}
		.st14 {stroke:#000000;stroke-dasharray:0.75,1.5;stroke-linecap:round;stroke-linejoin:round;stroke-width:0.75}
		.st15 {marker-end:url(#mrkr5-120);stroke:#000000;stroke-dasharray:0.75,1.5;stroke-linecap:round;stroke-linejoin:round;stroke-width:0.75}
		.st16 {fill:#000000;fill-opacity:1;stroke:#000000;stroke-opacity:1;stroke-width:0.29411764705882}
		.st17 {fill:#000000;font-family:Consolas;font-size:1.16666em}
		.st18 {fill:#000000;stroke:none;stroke-linecap:butt;stroke-width:38.25}
		.st19 {fill:none;fill-rule:evenodd;font-size:12px;overflow:visible;stroke-linecap:square;stroke-miterlimit:3}
	]]>
	</style>

	<defs id="Markers">
		<g id="lend5">
			<path d="M 2 1 L 0 0 L 1.98117 -0.993387 C 1.67173 -0.364515 1.67301 0.372641 1.98465 1.00043 " style="stroke:none"/>
		</g>
		<marker id="mrkr5-34" class="st6" refX="-7.63" orient="auto" markerUnits="strokeWidth" overflow="visible">
			<use xlink:href="#lend5" transform="scale(-4.36,-4.36) "/>
		</marker>
		<marker id="mrkr5-120" class="st16" refX="-5.95" orient="auto" markerUnits="strokeWidth" overflow="visible">
			<use xlink:href="#lend5" transform="scale(-3.4,-3.4) "/>
		</marker>
	</defs>
	<g>
		<title>页-1</title>
		<g id="group1007-1" transform="translate(42.5197,-35.9393)">
			<title>工作表.1007</title>
			<g id="shape22-2" transform="translate(31.2295,-147.402)">
				<title>工作表.22</title>
				<desc>(Logic)　</desc>
				<path d="M0 493.28 L142.02 493.28 L142.02 339 L0 339 L0 493.28 Z" class="st1"/>
				<text x="89.53" y="353.8" class="st2">(Logic)</text>			</g>
			<g id="shape1-5" transform="translate(128.883,-404.544)">
				<title>圆角矩形</title>
				<desc>Awake()</desc>
				<path d="M8.1 493.28 L95.37 493.28 A8.09885 8.09885 -180 0 0 103.46 485.18 A8.09885 8.09885 -180 0 0 95.37 477.08
							 L8.1 477.08 A8.09885 8.09885 -180 0 0 -0 485.18 A8.09885 8.09885 -180 0 0 8.1 493.28 Z" class="st3"/>
				<text x="32.49" y="488.18" class="st2">Awake()</text>			</g>
			<g id="shape2-8" transform="translate(128.883,-371.136)">
				<title>圆角矩形.2</title>
				<desc>OnEnable()</desc>
				<path d="M8.1 493.28 L95.37 493.28 A8.09885 8.09885 -180 0 0 103.46 485.18 A8.09885 8.09885 -180 0 0 95.37 477.08
							 L8.1 477.08 A8.09885 8.09885 -180 0 0 -0 485.18 A8.09885 8.09885 -180 0 0 8.1 493.28 Z" class="st3"/>
				<text x="24.24" y="488.18" class="st2">OnEnable()</text>			</g>
			<g id="shape3-11" transform="translate(128.883,-337.728)">
				<title>圆角矩形.3</title>
				<desc>Start()</desc>
				<path d="M8.1 493.28 L95.37 493.28 A8.09885 8.09885 -180 0 0 103.46 485.18 A8.09885 8.09885 -180 0 0 95.37 477.08
							 L8.1 477.08 A8.09885 8.09885 -180 0 0 -0 485.18 A8.09885 8.09885 -180 0 0 8.1 493.28 Z" class="st3"/>
				<text x="32.49" y="488.18" class="st2">Start()</text>			</g>
			<g id="shape4-14" transform="translate(173.529,-404.544)">
				<title>动态连接线</title>
				<path d="M7.09 493.28 L7.09 510.49" class="st4"/>
			</g>
			<g id="shape5-17" transform="translate(173.529,-371.136)">
				<title>动态连接线.5</title>
				<path d="M7.09 493.28 L7.09 510.49" class="st4"/>
			</g>
			<g id="shape8-20" transform="translate(50.505,-229.404)">
				<title>圆角矩形.8</title>
				<desc>(Coroutines)</desc>
				<path d="M8.1 493.28 L95.37 493.28 A8.09885 8.09885 -180 0 0 103.46 485.18 A8.09885 8.09885 -180 0 0 95.37 477.08
							 L8.1 477.08 A8.09885 8.09885 -180 0 0 -0 485.18 A8.09885 8.09885 -180 0 0 8.1 493.28 Z" class="st3"/>
				<text x="18.74" y="488.18" class="st2">(Coroutines)</text>			</g>
			<g id="shape9-23" transform="translate(50.505,-162.081)">
				<title>圆角矩形.9</title>
				<desc>LateUpdate()</desc>
				<path d="M8.1 493.28 L95.37 493.28 A8.09885 8.09885 -180 0 0 103.46 485.18 A8.09885 8.09885 -180 0 0 95.37 477.08
							 L8.1 477.08 A8.09885 8.09885 -180 0 0 -0 485.18 A8.09885 8.09885 -180 0 0 8.1 493.28 Z" class="st3"/>
				<text x="18.74" y="488.18" class="st2">LateUpdate()</text>			</g>
			<g id="shape11-26" transform="translate(95.1507,-262.812)">
				<title>动态连接线.11</title>
				<path d="M7.09 493.28 L7.09 510.49" class="st4"/>
			</g>
			<g id="shape13-29" transform="translate(95.1507,-162.081)">
				<title>动态连接线.13</title>
				<path d="M7.09 493.28 L7.09 518.96" class="st5"/>
			</g>
			<g id="shape14-35" transform="translate(109.324,-85.0394)">
				<title>动态连接线.14</title>
				<desc>One Frame</desc>
				<path d="M-7.09 493.28 L-7.09 500.46 A7.18109 7.18109 0 0 1 -14.27 507.64 L-81.5 507.64 A8.50394 8.50394 0 0 1 -90
							 499.14 L-90 296.04 A8.50394 8.50394 0 0 1 -81.5 287.54 L-12.97 287.54 A5.886 5.886 0 0 1 -7.09 293.43
							 L-7.09 293.59" class="st5"/>
				<rect x="-100.996" y="388.908" width="21.9919" height="19.1997" class="st7"/>
				<text x="-96.6" y="396.11" class="st8">One<tspan x="-101" dy="1.2em" class="st9">Frame</tspan></text>			</g>
			<g id="shape15-43" transform="translate(180.615,-337.728)">
				<title>动态连接线.15</title>
				<path d="M0 493.28 L0 498.6 A5.31496 5.31496 0 0 1 -5.31 503.91 L-69.87 503.91 A8.50394 8.50394 -180 0 0 -78.38 512.42
							 L-78.38 552" class="st4"/>
			</g>
			<g id="shape16-46" transform="translate(31.2295,-85.0394)">
				<title>矩形</title>
				<desc>(Rendering)</desc>
				<path d="M0 493.28 L142.02 493.28 L142.02 447.64 L0 447.64 L0 493.28 Z" class="st1"/>
				<text x="40.77" y="473.56" class="st2">(Rendering)</text>			</g>
			<g id="shape26-49" transform="translate(187.985,-85.0394)">
				<title>工作表.26</title>
				<desc>(Physics)</desc>
				<path d="M0 493.28 L142.02 493.28 L142.02 276.63 L0 276.63 L0 493.28 Z" class="st1"/>
				<text x="9.5" y="291.43" class="st2">(Physics)</text>			</g>
			<g id="shape29-52" transform="translate(232.631,-335.827)">
				<title>工作表.29</title>
				<desc>(Only Once)</desc>
				<rect x="0" y="473.282" width="73.7008" height="20" class="st10"/>
				<text x="9.64" y="486.3" class="st11">(Only Once)</text>			</g>
			<g id="shape34-55" transform="translate(207.261,-229.404)">
				<title>圆角矩形.34</title>
				<desc>(Animation)</desc>
				<path d="M8.1 493.28 L95.37 493.28 A8.09885 8.09885 -180 0 0 103.46 485.18 A8.09885 8.09885 -180 0 0 95.37 477.08
							 L8.1 477.08 A8.09885 8.09885 -180 0 0 -0 485.18 A8.09885 8.09885 -180 0 0 8.1 493.28 Z" class="st12"/>
				<text x="21.49" y="488.18" class="st13">(Animation)</text>			</g>
			<g id="shape35-58" transform="translate(207.261,-127.62)">
				<title>圆角矩形.35</title>
				<desc>OnTriggerXXX()</desc>
				<path d="M8.1 493.28 L95.37 493.28 A8.09885 8.09885 -180 0 0 103.46 485.18 A8.09885 8.09885 -180 0 0 95.37 477.08
							 L8.1 477.08 A8.09885 8.09885 -180 0 0 -0 485.18 A8.09885 8.09885 -180 0 0 8.1 493.28 Z" class="st3"/>
				<text x="13.25" y="488.18" class="st2">OnTriggerXXX()</text>			</g>
			<g id="shape36-61" transform="translate(251.907,-262.812)">
				<title>动态连接线.36</title>
				<path d="M7.09 493.28 L7.09 510.49" class="st4"/>
			</g>
			<g id="shape37-64" transform="translate(251.907,-229.404)">
				<title>动态连接线.37</title>
				<path d="M7.09 493.28 L7.09 510.49" class="st4"/>
			</g>
			<g id="shape38-67" transform="translate(180.615,-337.728)">
				<title>动态连接线.38</title>
				<path d="M0 493.28 L0 499.17 A5.886 5.886 -180 0 0 5.89 505.05 L69.87 505.05 A8.50394 8.50394 0 0 1 78.38 513.56
							 L78.38 546.28" class="st5"/>
			</g>
			<g id="shape41-72" transform="translate(207.261,-162.081)">
				<title>圆角矩形.41</title>
				<desc>(Animator IK)</desc>
				<path d="M8.1 493.28 L95.37 493.28 A8.09885 8.09885 -180 0 0 103.46 485.18 A8.09885 8.09885 -180 0 0 95.37 477.08
							 L8.1 477.08 A8.09885 8.09885 -180 0 0 -0 485.18 A8.09885 8.09885 -180 0 0 8.1 493.28 Z" class="st12"/>
				<text x="15.99" y="488.18" class="st13">(Animator IK)</text>			</g>
			<g id="shape45-75" transform="translate(251.907,-162.081)">
				<title>动态连接线.45</title>
				<path d="M7.09 493.28 L7.09 511.55" class="st4"/>
			</g>
			<g id="shape46-78" transform="translate(207.261,-195.995)">
				<title>圆角矩形.46</title>
				<desc>(Internal Physx)</desc>
				<path d="M8.1 493.28 L95.37 493.28 A8.09885 8.09885 -180 0 0 103.46 485.18 A8.09885 8.09885 -180 0 0 95.37 477.08
							 L8.1 477.08 A8.09885 8.09885 -180 0 0 -0 485.18 A8.09885 8.09885 -180 0 0 8.1 493.28 Z" class="st12"/>
				<text x="7.75" y="488.18" class="st13">(Internal Physx)</text>			</g>
			<g id="shape48-81" transform="translate(251.907,-195.995)">
				<title>动态连接线.48</title>
				<path d="M7.09 493.28 L7.09 511" class="st4"/>
			</g>
			<g id="shape49-84" transform="translate(266.08,-85.0394)">
				<title>动态连接线.49</title>
				<desc>Fixed Timestep</desc>
				<path d="M-7.09 493.28 L-7.09 499.34 A6.05315 6.05315 -180 0 0 -1.03 505.39 L67.32 505.39 A8.50394 8.50394 -180 0
							 0 75.83 496.88 L75.83 296.04 A8.50394 8.50394 -180 0 0 67.32 287.54 L-1.2 287.54 A5.886 5.886 -180 0
							 0 -7.09 293.43 L-7.09 293.59" class="st5"/>
				<rect x="58.2332" y="386.982" width="35.187" height="19.1997" class="st7"/>
				<text x="64.83" y="394.18" class="st8">Fixed<tspan x="58.23" dy="1.2em" class="st9">Timestep</tspan></text>			</g>
			<g id="shape7-92" transform="translate(50.505,-262.812)">
				<title>圆角矩形.7</title>
				<desc>Update()</desc>
				<path d="M8.1 493.28 L95.37 493.28 A8.09885 8.09885 -180 0 0 103.46 485.18 A8.09885 8.09885 -180 0 0 95.37 477.08
							 L8.1 477.08 A8.09885 8.09885 -180 0 0 -0 485.18 A8.09885 8.09885 -180 0 0 8.1 493.28 Z" class="st3"/>
				<text x="29.74" y="488.18" class="st2">Update()</text>			</g>
			<g id="shape33-95" transform="translate(207.261,-262.812)">
				<title>圆角矩形.33</title>
				<desc>FixedUpdate()</desc>
				<path d="M8.1 493.28 L95.37 493.28 A8.09885 8.09885 -180 0 0 103.46 485.18 A8.09885 8.09885 -180 0 0 95.37 477.08
							 L8.1 477.08 A8.09885 8.09885 -180 0 0 -0 485.18 A8.09885 8.09885 -180 0 0 8.1 493.28 Z" class="st3"/>
				<text x="15.99" y="488.18" class="st2">FixedUpdate()</text>			</g>
			<g id="shape51-98" transform="translate(258.993,-85.0394)">
				<title>动态连接线.51</title>
				<path d="M0 493.28 L0 499.04 A5.75787 5.75787 0 0 1 -5.76 504.8 L-69.81 504.8 A8.50394 8.50394 0 0 1 -78.31 496.29
							 L-78.31 274.51 A8.50394 8.50394 -180 0 0 -86.82 266 L-151.44 266 A5.31496 5.31496 -180 0 0 -156.76 271.32
							 L-156.76 276.63" class="st14"/>
			</g>
			<g id="shape56-101" transform="translate(129.166,-33.4083)">
				<title>圆角矩形.56</title>
				<desc>OnDisable()</desc>
				<path d="M8.1 493.28 L95.37 493.28 A8.09885 8.09885 -180 0 0 103.46 485.18 A8.09885 8.09885 -180 0 0 95.37 477.08
							 L8.1 477.08 A8.09885 8.09885 -180 0 0 -0 485.18 A8.09885 8.09885 -180 0 0 8.1 493.28 Z" class="st3"/>
				<text x="21.49" y="488.18" class="st2">OnDisable()</text>			</g>
			<g id="shape57-104" transform="translate(129.166,5.68434E-14)">
				<title>圆角矩形.57</title>
				<desc>OnDestroy()</desc>
				<path d="M8.1 493.28 L95.37 493.28 A8.09885 8.09885 -180 0 0 103.46 485.18 A8.09885 8.09885 -180 0 0 95.37 477.08
							 L8.1 477.08 A8.09885 8.09885 -180 0 0 -0 485.18 A8.09885 8.09885 -180 0 0 8.1 493.28 Z" class="st3"/>
				<text x="21.49" y="488.18" class="st2">OnDestroy()</text>			</g>
			<g id="shape58-107" transform="translate(173.812,-33.4083)">
				<title>动态连接线.58</title>
				<path d="M7.09 493.28 L7.09 510.49" class="st4"/>
			</g>
			<g id="shape59-110" transform="translate(102.237,-85.0394)">
				<title>动态连接线.59</title>
				<path d="M0 493.28 L0 503.64 A8.50394 8.50394 -180 0 0 8.5 512.14 L70.37 512.14 A8.28723 8.28723 0 0 1 78.66 520.43
							 L78.66 522.99" class="st5"/>
			</g>
			<g id="shape61-115" transform="translate(239.576,-41.5073)">
				<title>动态连接线.61</title>
				<path d="M-6.94 493.28 L120.05 493.28 A8.50394 8.50394 -180 0 0 128.55 484.78 L128.55 164.06 A8.50394 8.50394 -180
							 0 0 120.05 155.55 L-2.77 155.55" class="st15"/>
			</g>
			<g id="shape62-121" transform="translate(-7.99361E-15,-368.504)">
				<title>工作表.62</title>
				<desc>Unity MonoBehaviour Main Lifecycle</desc>
				<rect x="0" y="447.644" width="121.42" height="45.6378" class="st10"/>
				<text x="27.09" y="457.86" class="st17">Unity  <tspan x="4" dy="1.2em" class="st9">MonoBehaviour </tspan><tspan
							x="4" dy="1.2em" class="st9">Main Lifecycle</tspan></text>			</g>
			<g id="group63-126" transform="translate(5.94478,-400.114)">
				<title>工作表.63</title>
				<g id="group64-127">
					<title>工作表.64</title>
					<g id="shape65-128">
						<title>工作表.65</title>
						<path d="M8.92 478.1 L11.82 479.84 C11.94 479.95 11.94 480.07 11.82 480.07 L8.34 482.04 C8.23 482.16 8.11
									 482.04 8 482.04 L4.52 480.07 C4.4 480.07 4.4 479.84 4.52 479.84 L7.42 478.1 L7.42 474.74 L0
									 479.03 L0 487.72 L2.9 486.1 L2.9 482.62 C2.9 482.5 3.01 482.39 3.13 482.5 L6.61 484.47 C6.72
									 484.59 6.72 484.59 6.72 484.71 L6.72 488.76 C6.72 488.88 6.61 488.99 6.49 488.88 L3.59 487.14
									 L0.7 488.76 L8.23 493.28 L15.76 488.99 L12.86 487.37 L9.97 489.11 C9.85 489.23 9.74 489.11 9.74
									 488.99 L9.74 484.82 C9.74 484.71 9.85 484.59 9.85 484.59 L13.33 482.62 C13.44 482.5 13.56 482.62
									 13.56 482.74 L13.56 486.1 L16.46 487.72 L16.46 479.03 L8.92 474.74 L8.92 478.1 Z" class="st18"/>
					</g>
				</g>
			</g>
			<g id="shape1000-130" transform="translate(0.6153,-349.016)">
				<title>工作表.1000</title>
				<desc>Made by AdorN, 2025.1.20</desc>
				<rect x="0" y="477.084" width="127.984" height="16.198" class="st10"/>
				<text x="4" y="487.58" class="st8">Made by AdorN, 2025.1.20</text>			</g>
			<g id="shape1001-133" transform="translate(207.261,-93.5433)">
				<title>圆角矩形.1001</title>
				<desc>OnCollisionXXX()</desc>
				<path d="M8.1 493.28 L95.37 493.28 A8.09885 8.09885 -180 0 0 103.46 485.18 A8.09885 8.09885 -180 0 0 95.37 477.08
							 L8.1 477.08 A8.09885 8.09885 -180 0 0 -0 485.18 A8.09885 8.09885 -180 0 0 8.1 493.28 Z" class="st3"/>
				<text x="7.75" y="488.18" class="st2">OnCollisionXXX()</text>			</g>
			<g id="shape1002-136" transform="translate(251.907,-127.62)">
				<title>动态连接线.1002</title>
				<path d="M7.09 493.28 L7.09 511.16" class="st4"/>
			</g>
			<g id="shape1003-139" transform="translate(251.907,-96.3779)">
				<title>动态连接线.1003</title>
				<path d="M7.09 496.12 L7.09 511.71 L7.09 504.62" class="st4"/>
			</g>
			<g id="shape1004-142" transform="translate(50.505,-195.995)">
				<title>圆角矩形.1004</title>
				<desc>(Animations)</desc>
				<path d="M8.1 493.28 L95.37 493.28 A8.09885 8.09885 -180 0 0 103.46 485.18 A8.09885 8.09885 -180 0 0 95.37 477.08
							 L8.1 477.08 A8.09885 8.09885 -180 0 0 -0 485.18 A8.09885 8.09885 -180 0 0 8.1 493.28 Z" class="st12"/>
				<text x="18.74" y="488.18" class="st13">(Animations)</text>			</g>
			<g id="shape1005-145" transform="translate(95.1507,-229.404)">
				<title>动态连接线.1005</title>
				<path d="M7.09 493.28 L7.09 510.49" class="st4"/>
			</g>
			<g id="shape1006-148" transform="translate(95.1507,-195.995)">
				<title>动态连接线.1006</title>
				<path d="M7.09 493.28 L7.09 511" class="st4"/>
			</g>
		</g>
	</g>
</svg>
