<?xml version="1.0" encoding="UTF-8" standalone="no"?>
<!DOCTYPE svg PUBLIC "-//W3C//DTD SVG 1.1//EN" "http://www.w3.org/Graphics/SVG/1.1/DTD/svg11.dtd">
<!-- 由 Microsoft Visio, SVG Export 生成 Unity MonoBehaviour Main Lifecycle.svg 页-1 -->
<svg xmlns="http://www.w3.org/2000/svg" xmlns:xlink="http://www.w3.org/1999/xlink" xmlns:ev="http://www.w3.org/2001/xml-events"
		xmlns:v="http://schemas.microsoft.com/visio/2003/SVGExtensions/" width="5.83934in" height="6.09804in"
		viewBox="0 0 420.432 439.059" xml:space="preserve" color-interpolation-filters="sRGB" class="st18">
	<v:documentProperties v:langID="2052" v:metric="true" v:viewMarkup="false"/>

	<style type="text/css">
	<![CDATA[
		.st1 {fill:#ffffff;stroke:#000000;stroke-dasharray:5.25,3.75;stroke-linecap:round;stroke-linejoin:round;stroke-width:0.75}
		.st2 {fill:#000000;font-family:Consolas;font-size:0.833336em}
		.st3 {fill:#ffffff;stroke:#000000;stroke-linecap:round;stroke-linejoin:round;stroke-width:0.75}
		.st4 {stroke:#000000;stroke-linecap:round;stroke-linejoin:round;stroke-width:0.75}
		.st5 {marker-end:url(#mrkr5-36);stroke:#000000;stroke-linecap:round;stroke-linejoin:round;stroke-width:0.75}
		.st6 {fill:#000000;fill-opacity:1;stroke:#000000;stroke-opacity:1;stroke-width:0.22935779816514}
		.st7 {fill:#ffffff;stroke:none;stroke-linecap:butt;stroke-width:7.2}
		.st8 {fill:#000000;font-family:Consolas;font-size:0.666664em}
		.st9 {font-size:1em}
		.st10 {fill:none;stroke:none;stroke-linecap:round;stroke-linejoin:round;stroke-width:0.75}
		.st11 {fill:#7f7f7f;font-family:Consolas;font-size:0.75em}
		.st12 {marker-end:url(#mrkr5-91);stroke:#000000;stroke-linecap:round;stroke-linejoin:round;stroke-width:0.75}
		.st13 {stroke:#000000;stroke-dasharray:0.75,1.5;stroke-linecap:round;stroke-linejoin:round;stroke-width:0.75}
		.st14 {marker-end:url(#mrkr5-124);stroke:#000000;stroke-dasharray:0.75,1.5;stroke-linecap:round;stroke-linejoin:round;stroke-width:0.75}
		.st15 {fill:#000000;fill-opacity:1;stroke:#000000;stroke-opacity:1;stroke-width:0.29411764705882}
		.st16 {fill:#000000;font-family:Consolas;font-size:1.16666em}
		.st17 {fill:#000000;stroke:none;stroke-linecap:butt;stroke-width:38.25}
		.st18 {fill:none;fill-rule:evenodd;font-size:12px;overflow:visible;stroke-linecap:square;stroke-miterlimit:3}
	]]>
	</style>

	<defs id="Markers">
		<g id="lend5">
			<path d="M 2 1 L 0 0 L 1.98117 -0.993387 C 1.67173 -0.364515 1.67301 0.372641 1.98465 1.00043 " style="stroke:none"/>
		</g>
		<marker id="mrkr5-36" class="st6" v:arrowType="5" v:arrowSize="2" v:setback="7.63" refX="-7.63" orient="auto"
				markerUnits="strokeWidth" overflow="visible">
			<use xlink:href="#lend5" transform="scale(-4.36,-4.36) "/>
		</marker>
		<marker id="mrkr5-91" class="st6" v:arrowType="5" v:arrowSize="2" v:setback="0" refX="-0" orient="auto"
				markerUnits="strokeWidth" overflow="visible">
			<use xlink:href="#lend5" transform="scale(-4.36,-4.36) "/>
		</marker>
		<marker id="mrkr5-124" class="st15" v:arrowType="5" v:arrowSize="1" v:setback="5.95" refX="-5.95" orient="auto"
				markerUnits="strokeWidth" overflow="visible">
			<use xlink:href="#lend5" transform="scale(-3.4,-3.4) "/>
		</marker>
	</defs>
	<g v:mID="0" v:index="1" v:groupContext="foregroundPage">
		<title>页-1</title>
		<v:pageProperties v:drawingScale="0.0393701" v:pageScale="0.0393701" v:drawingUnits="24" v:shadowOffsetX="8.50394"
				v:shadowOffsetY="-8.50394"/>
		<v:layer v:name="连接线" v:index="0"/>
		<g id="shape22-1" v:mID="22" v:groupContext="shape" transform="translate(63.5347,-161.383)">
			<title>工作表.22</title>
			<desc>(Logic)　</desc>
			<v:textBlock v:margins="rect(4,4,4,4)" v:tabSpace="42.5197" v:verticalAlign="0"/>
			<v:textRect cx="71.0079" cy="377.831" width="142.02" height="122.457"/>
			<path d="M0 439.06 L142.02 439.06 L142.02 316.6 L0 316.6 L0 439.06 Z" class="st1"/>
			<text x="89.53" y="331.4" class="st2" v:langID="2052"><v:paragraph v:horizAlign="2"/><v:tabList/>(Logic)　</text>		</g>
		<g id="shape1-4" v:mID="1" v:groupContext="shape" transform="translate(161.188,-386.697)">
			<title>圆角矩形</title>
			<desc>Awake()</desc>
			<v:userDefs>
				<v:ud v:nameU="CTypeTopLeftSnip" v:prompt="" v:val="VT0(0):5"/>
				<v:ud v:nameU="CTypeTopRightSnip" v:prompt="" v:val="VT0(0):5"/>
				<v:ud v:nameU="CTypeBotLeftSnip" v:prompt="" v:val="VT0(0):5"/>
				<v:ud v:nameU="CTypeBotRightSnip" v:prompt="" v:val="VT0(0):5"/>
				<v:ud v:nameU="CornerLockHoriz" v:prompt="" v:val="VT0(1):5"/>
				<v:ud v:nameU="CornerLockVert" v:prompt="" v:val="VT0(1):5"/>
				<v:ud v:nameU="CornerLockDiag" v:prompt="" v:val="VT0(0):5"/>
				<v:ud v:nameU="TopLeftOffset" v:prompt="" v:val="VT0(0.15748031496063):24"/>
				<v:ud v:nameU="TopRightOffset" v:prompt="" v:val="VT0(0.15748031496063):24"/>
				<v:ud v:nameU="BotLeftOffset" v:prompt="" v:val="VT0(0.15748031496063):24"/>
				<v:ud v:nameU="BotRightOffset" v:prompt="" v:val="VT0(0.15748031496063):24"/>
				<v:ud v:nameU="visVersion" v:prompt="" v:val="VT0(15):26"/>
				<v:ud v:nameU="TopLeftOffset" v:prompt="" v:val="VT0(0.11248593547537):1"/>
				<v:ud v:nameU="TopRightOffset" v:prompt="" v:val="VT0(0.11248593547537):1"/>
				<v:ud v:nameU="BotLeftOffset" v:prompt="" v:val="VT0(0.11248593547537):1"/>
				<v:ud v:nameU="BotRightOffset" v:prompt="" v:val="VT0(0.11248593547537):1"/>
			</v:userDefs>
			<v:textBlock v:margins="rect(4,4,4,4)" v:tabSpace="42.5197"/>
			<v:textRect cx="51.7323" cy="430.96" width="103.47" height="16.198"/>
			<path d="M8.1 439.06 L95.37 439.06 A8.09885 8.09885 -180 0 0 103.46 430.96 A8.09885 8.09885 -180 0 0 95.37 422.86 L8.1
						 422.86 A8.09885 8.09885 -180 0 0 -0 430.96 A8.09885 8.09885 -180 0 0 8.1 439.06 Z" class="st3"/>
			<text x="32.49" y="433.96" class="st2" v:langID="2052"><v:paragraph v:horizAlign="1"/><v:tabList/>Awake()</text>		</g>
		<g id="shape2-7" v:mID="2" v:groupContext="shape" transform="translate(161.188,-353.288)">
			<title>圆角矩形.2</title>
			<desc>OnEnable()</desc>
			<v:userDefs>
				<v:ud v:nameU="CTypeTopLeftSnip" v:prompt="" v:val="VT0(0):5"/>
				<v:ud v:nameU="CTypeTopRightSnip" v:prompt="" v:val="VT0(0):5"/>
				<v:ud v:nameU="CTypeBotLeftSnip" v:prompt="" v:val="VT0(0):5"/>
				<v:ud v:nameU="CTypeBotRightSnip" v:prompt="" v:val="VT0(0):5"/>
				<v:ud v:nameU="CornerLockHoriz" v:prompt="" v:val="VT0(1):5"/>
				<v:ud v:nameU="CornerLockVert" v:prompt="" v:val="VT0(1):5"/>
				<v:ud v:nameU="CornerLockDiag" v:prompt="" v:val="VT0(0):5"/>
				<v:ud v:nameU="TopLeftOffset" v:prompt="" v:val="VT0(0.15748031496063):24"/>
				<v:ud v:nameU="TopRightOffset" v:prompt="" v:val="VT0(0.15748031496063):24"/>
				<v:ud v:nameU="BotLeftOffset" v:prompt="" v:val="VT0(0.15748031496063):24"/>
				<v:ud v:nameU="BotRightOffset" v:prompt="" v:val="VT0(0.15748031496063):24"/>
				<v:ud v:nameU="visVersion" v:prompt="" v:val="VT0(15):26"/>
				<v:ud v:nameU="TopLeftOffset" v:prompt="" v:val="VT0(0.11248593547537):1"/>
				<v:ud v:nameU="TopRightOffset" v:prompt="" v:val="VT0(0.11248593547537):1"/>
				<v:ud v:nameU="BotLeftOffset" v:prompt="" v:val="VT0(0.11248593547537):1"/>
				<v:ud v:nameU="BotRightOffset" v:prompt="" v:val="VT0(0.11248593547537):1"/>
			</v:userDefs>
			<v:textBlock v:margins="rect(4,4,4,4)" v:tabSpace="42.5197"/>
			<v:textRect cx="51.7323" cy="430.96" width="103.47" height="16.198"/>
			<path d="M8.1 439.06 L95.37 439.06 A8.09885 8.09885 -180 0 0 103.46 430.96 A8.09885 8.09885 -180 0 0 95.37 422.86 L8.1
						 422.86 A8.09885 8.09885 -180 0 0 -0 430.96 A8.09885 8.09885 -180 0 0 8.1 439.06 Z" class="st3"/>
			<text x="24.24" y="433.96" class="st2" v:langID="2052"><v:paragraph v:horizAlign="1"/><v:tabList/>OnEnable()</text>		</g>
		<g id="shape3-10" v:mID="3" v:groupContext="shape" transform="translate(161.188,-319.88)">
			<title>圆角矩形.3</title>
			<desc>Start()</desc>
			<v:userDefs>
				<v:ud v:nameU="CTypeTopLeftSnip" v:prompt="" v:val="VT0(0):5"/>
				<v:ud v:nameU="CTypeTopRightSnip" v:prompt="" v:val="VT0(0):5"/>
				<v:ud v:nameU="CTypeBotLeftSnip" v:prompt="" v:val="VT0(0):5"/>
				<v:ud v:nameU="CTypeBotRightSnip" v:prompt="" v:val="VT0(0):5"/>
				<v:ud v:nameU="CornerLockHoriz" v:prompt="" v:val="VT0(1):5"/>
				<v:ud v:nameU="CornerLockVert" v:prompt="" v:val="VT0(1):5"/>
				<v:ud v:nameU="CornerLockDiag" v:prompt="" v:val="VT0(0):5"/>
				<v:ud v:nameU="TopLeftOffset" v:prompt="" v:val="VT0(0.15748031496063):24"/>
				<v:ud v:nameU="TopRightOffset" v:prompt="" v:val="VT0(0.15748031496063):24"/>
				<v:ud v:nameU="BotLeftOffset" v:prompt="" v:val="VT0(0.15748031496063):24"/>
				<v:ud v:nameU="BotRightOffset" v:prompt="" v:val="VT0(0.15748031496063):24"/>
				<v:ud v:nameU="visVersion" v:prompt="" v:val="VT0(15):26"/>
				<v:ud v:nameU="TopLeftOffset" v:prompt="" v:val="VT0(0.11248593547537):1"/>
				<v:ud v:nameU="TopRightOffset" v:prompt="" v:val="VT0(0.11248593547537):1"/>
				<v:ud v:nameU="BotLeftOffset" v:prompt="" v:val="VT0(0.11248593547537):1"/>
				<v:ud v:nameU="BotRightOffset" v:prompt="" v:val="VT0(0.11248593547537):1"/>
			</v:userDefs>
			<v:textBlock v:margins="rect(4,4,4,4)" v:tabSpace="42.5197"/>
			<v:textRect cx="51.7323" cy="430.96" width="103.47" height="16.198"/>
			<path d="M8.1 439.06 L95.37 439.06 A8.09885 8.09885 -180 0 0 103.46 430.96 A8.09885 8.09885 -180 0 0 95.37 422.86 L8.1
						 422.86 A8.09885 8.09885 -180 0 0 -0 430.96 A8.09885 8.09885 -180 0 0 8.1 439.06 Z" class="st3"/>
			<text x="32.49" y="433.96" class="st2" v:langID="2052"><v:paragraph v:horizAlign="1"/><v:tabList/>Start()</text>		</g>
		<g id="shape4-13" v:mID="4" v:groupContext="shape" v:layerMember="0" transform="translate(205.834,-386.697)">
			<title>动态连接线</title>
			<path d="M7.09 439.06 L7.09 456.27" class="st4"/>
		</g>
		<g id="shape5-16" v:mID="5" v:groupContext="shape" v:layerMember="0" transform="translate(205.834,-353.288)">
			<title>动态连接线.5</title>
			<path d="M7.09 439.06 L7.09 456.27" class="st4"/>
		</g>
		<g id="shape8-19" v:mID="8" v:groupContext="shape" transform="translate(82.8103,-211.556)">
			<title>圆角矩形.8</title>
			<desc>(Coroutines)</desc>
			<v:userDefs>
				<v:ud v:nameU="CTypeTopLeftSnip" v:prompt="" v:val="VT0(0):5"/>
				<v:ud v:nameU="CTypeTopRightSnip" v:prompt="" v:val="VT0(0):5"/>
				<v:ud v:nameU="CTypeBotLeftSnip" v:prompt="" v:val="VT0(0):5"/>
				<v:ud v:nameU="CTypeBotRightSnip" v:prompt="" v:val="VT0(0):5"/>
				<v:ud v:nameU="CornerLockHoriz" v:prompt="" v:val="VT0(1):5"/>
				<v:ud v:nameU="CornerLockVert" v:prompt="" v:val="VT0(1):5"/>
				<v:ud v:nameU="CornerLockDiag" v:prompt="" v:val="VT0(0):5"/>
				<v:ud v:nameU="TopLeftOffset" v:prompt="" v:val="VT0(0.15748031496063):24"/>
				<v:ud v:nameU="TopRightOffset" v:prompt="" v:val="VT0(0.15748031496063):24"/>
				<v:ud v:nameU="BotLeftOffset" v:prompt="" v:val="VT0(0.15748031496063):24"/>
				<v:ud v:nameU="BotRightOffset" v:prompt="" v:val="VT0(0.15748031496063):24"/>
				<v:ud v:nameU="visVersion" v:prompt="" v:val="VT0(15):26"/>
				<v:ud v:nameU="TopLeftOffset" v:prompt="" v:val="VT0(0.11248593547537):1"/>
				<v:ud v:nameU="TopRightOffset" v:prompt="" v:val="VT0(0.11248593547537):1"/>
				<v:ud v:nameU="BotLeftOffset" v:prompt="" v:val="VT0(0.11248593547537):1"/>
				<v:ud v:nameU="BotRightOffset" v:prompt="" v:val="VT0(0.11248593547537):1"/>
			</v:userDefs>
			<v:textBlock v:margins="rect(4,4,4,4)" v:tabSpace="42.5197"/>
			<v:textRect cx="51.7323" cy="430.96" width="103.47" height="16.198"/>
			<path d="M8.1 439.06 L95.37 439.06 A8.09885 8.09885 -180 0 0 103.46 430.96 A8.09885 8.09885 -180 0 0 95.37 422.86 L8.1
						 422.86 A8.09885 8.09885 -180 0 0 -0 430.96 A8.09885 8.09885 -180 0 0 8.1 439.06 Z" class="st3"/>
			<text x="18.74" y="433.96" class="st2" v:langID="2052"><v:paragraph v:horizAlign="1"/><v:tabList/>(Coroutines)</text>		</g>
		<g id="shape9-22" v:mID="9" v:groupContext="shape" transform="translate(82.8103,-178.148)">
			<title>圆角矩形.9</title>
			<desc>LateUpdate()</desc>
			<v:userDefs>
				<v:ud v:nameU="CTypeTopLeftSnip" v:prompt="" v:val="VT0(0):5"/>
				<v:ud v:nameU="CTypeTopRightSnip" v:prompt="" v:val="VT0(0):5"/>
				<v:ud v:nameU="CTypeBotLeftSnip" v:prompt="" v:val="VT0(0):5"/>
				<v:ud v:nameU="CTypeBotRightSnip" v:prompt="" v:val="VT0(0):5"/>
				<v:ud v:nameU="CornerLockHoriz" v:prompt="" v:val="VT0(1):5"/>
				<v:ud v:nameU="CornerLockVert" v:prompt="" v:val="VT0(1):5"/>
				<v:ud v:nameU="CornerLockDiag" v:prompt="" v:val="VT0(0):5"/>
				<v:ud v:nameU="TopLeftOffset" v:prompt="" v:val="VT0(0.15748031496063):24"/>
				<v:ud v:nameU="TopRightOffset" v:prompt="" v:val="VT0(0.15748031496063):24"/>
				<v:ud v:nameU="BotLeftOffset" v:prompt="" v:val="VT0(0.15748031496063):24"/>
				<v:ud v:nameU="BotRightOffset" v:prompt="" v:val="VT0(0.15748031496063):24"/>
				<v:ud v:nameU="visVersion" v:prompt="" v:val="VT0(15):26"/>
				<v:ud v:nameU="TopLeftOffset" v:prompt="" v:val="VT0(0.11248593547537):1"/>
				<v:ud v:nameU="TopRightOffset" v:prompt="" v:val="VT0(0.11248593547537):1"/>
				<v:ud v:nameU="BotLeftOffset" v:prompt="" v:val="VT0(0.11248593547537):1"/>
				<v:ud v:nameU="BotRightOffset" v:prompt="" v:val="VT0(0.11248593547537):1"/>
			</v:userDefs>
			<v:textBlock v:margins="rect(4,4,4,4)" v:tabSpace="42.5197"/>
			<v:textRect cx="51.7323" cy="430.96" width="103.47" height="16.198"/>
			<path d="M8.1 439.06 L95.37 439.06 A8.09885 8.09885 -180 0 0 103.46 430.96 A8.09885 8.09885 -180 0 0 95.37 422.86 L8.1
						 422.86 A8.09885 8.09885 -180 0 0 -0 430.96 A8.09885 8.09885 -180 0 0 8.1 439.06 Z" class="st3"/>
			<text x="18.74" y="433.96" class="st2" v:langID="2052"><v:paragraph v:horizAlign="1"/><v:tabList/>LateUpdate()</text>		</g>
		<g id="shape11-25" v:mID="11" v:groupContext="shape" v:layerMember="0" transform="translate(127.456,-244.964)">
			<title>动态连接线.11</title>
			<path d="M7.09 439.06 L7.09 456.27" class="st4"/>
		</g>
		<g id="shape12-28" v:mID="12" v:groupContext="shape" v:layerMember="0" transform="translate(127.456,-211.556)">
			<title>动态连接线.12</title>
			<path d="M7.09 439.06 L7.09 456.27" class="st4"/>
		</g>
		<g id="shape13-31" v:mID="13" v:groupContext="shape" v:layerMember="0" transform="translate(127.456,-178.148)">
			<title>动态连接线.13</title>
			<path d="M7.09 439.06 L7.09 470.79" class="st5"/>
		</g>
		<g id="shape14-37" v:mID="14" v:groupContext="shape" v:layerMember="0" transform="translate(127.456,-95.0522)">
			<title>动态连接线.14</title>
			<desc>One Frame</desc>
			<v:textBlock v:margins="rect(4,4,4,4)" v:tabSpace="42.5197"/>
			<v:textRect cx="-77.2441" cy="356.004" width="40" height="27.2035"/>
			<path d="M7.09 439.06 L7.09 444.95 A5.886 5.886 0 0 1 1.2 450.83 L-68.74 450.83 A8.50394 8.50394 0 0 1 -77.24 442.33
						 L-77.24 269.68 A8.50394 8.50394 0 0 1 -68.74 261.18 L1.2 261.18 A5.886 5.886 0 0 1 7.09 267.06 L7.09 267.23"
					class="st5"/>
			<rect v:rectContext="textBkgnd" x="-88.24" y="346.404" width="21.9919" height="19.1997" class="st7"/>
			<text x="-83.84" y="353.6" class="st8" v:langID="2052"><v:paragraph v:horizAlign="1"/><v:tabList/>One<v:lf/><tspan
						x="-88.24" dy="1.2em" class="st9">Frame</tspan></text>		</g>
		<g id="shape15-45" v:mID="15" v:groupContext="shape" v:layerMember="0" transform="translate(212.921,-319.88)">
			<title>动态连接线.15</title>
			<path d="M0 439.06 L0 444.37 A5.31496 5.31496 0 0 1 -5.31 449.69 L-69.87 449.69 A8.50394 8.50394 -180 0 0 -78.38 458.19
						 L-78.38 497.78" class="st4"/>
		</g>
		<g id="shape16-48" v:mID="16" v:groupContext="shape" transform="translate(63.5347,-95.0522)">
			<title>矩形</title>
			<desc>(Rendering)</desc>
			<v:userDefs>
				<v:ud v:nameU="visVersion" v:val="VT0(15):26"/>
			</v:userDefs>
			<v:textBlock v:margins="rect(4,4,4,4)" v:tabSpace="42.5197"/>
			<v:textRect cx="71.0079" cy="416.24" width="142.02" height="45.6378"/>
			<path d="M0 439.06 L142.02 439.06 L142.02 393.42 L0 393.42 L0 439.06 Z" class="st1"/>
			<text x="40.77" y="419.34" class="st2" v:langID="2052"><v:paragraph v:horizAlign="1"/><v:tabList/>(Rendering)</text>		</g>
		<g id="shape26-51" v:mID="26" v:groupContext="shape" transform="translate(220.291,-96.7529)">
			<title>工作表.26</title>
			<desc>(Physics)</desc>
			<v:textBlock v:margins="rect(4,4,4,4)" v:tabSpace="42.5197" v:verticalAlign="0"/>
			<v:textRect cx="71.0079" cy="345.516" width="142.02" height="187.087"/>
			<path d="M0 439.06 L142.02 439.06 L142.02 251.97 L0 251.97 L0 439.06 Z" class="st1"/>
			<text x="9.5" y="266.77" class="st2" v:langID="2052"><v:paragraph/><v:tabList/>(Physics)</text>		</g>
		<g id="shape29-54" v:mID="29" v:groupContext="shape" transform="translate(264.936,-317.979)">
			<title>工作表.29</title>
			<desc>(Only Once)</desc>
			<v:textBlock v:margins="rect(4,4,4,4)" v:tabSpace="42.5197"/>
			<v:textRect cx="36.8504" cy="429.059" width="73.71" height="20"/>
			<rect x="0" y="419.059" width="73.7008" height="20" class="st10"/>
			<text x="9.64" y="432.08" class="st11" v:langID="2052"><v:paragraph v:horizAlign="1"/><v:tabList/>(Only Once)</text>		</g>
		<g id="shape34-57" v:mID="34" v:groupContext="shape" transform="translate(239.566,-211.556)">
			<title>圆角矩形.34</title>
			<desc>(Animators)</desc>
			<v:userDefs>
				<v:ud v:nameU="CTypeTopLeftSnip" v:prompt="" v:val="VT0(0):5"/>
				<v:ud v:nameU="CTypeTopRightSnip" v:prompt="" v:val="VT0(0):5"/>
				<v:ud v:nameU="CTypeBotLeftSnip" v:prompt="" v:val="VT0(0):5"/>
				<v:ud v:nameU="CTypeBotRightSnip" v:prompt="" v:val="VT0(0):5"/>
				<v:ud v:nameU="CornerLockHoriz" v:prompt="" v:val="VT0(1):5"/>
				<v:ud v:nameU="CornerLockVert" v:prompt="" v:val="VT0(1):5"/>
				<v:ud v:nameU="CornerLockDiag" v:prompt="" v:val="VT0(0):5"/>
				<v:ud v:nameU="TopLeftOffset" v:prompt="" v:val="VT0(0.15748031496063):24"/>
				<v:ud v:nameU="TopRightOffset" v:prompt="" v:val="VT0(0.15748031496063):24"/>
				<v:ud v:nameU="BotLeftOffset" v:prompt="" v:val="VT0(0.15748031496063):24"/>
				<v:ud v:nameU="BotRightOffset" v:prompt="" v:val="VT0(0.15748031496063):24"/>
				<v:ud v:nameU="visVersion" v:prompt="" v:val="VT0(15):26"/>
				<v:ud v:nameU="TopLeftOffset" v:prompt="" v:val="VT0(0.11248593547537):1"/>
				<v:ud v:nameU="TopRightOffset" v:prompt="" v:val="VT0(0.11248593547537):1"/>
				<v:ud v:nameU="BotLeftOffset" v:prompt="" v:val="VT0(0.11248593547537):1"/>
				<v:ud v:nameU="BotRightOffset" v:prompt="" v:val="VT0(0.11248593547537):1"/>
			</v:userDefs>
			<v:textBlock v:margins="rect(4,4,4,4)" v:tabSpace="42.5197"/>
			<v:textRect cx="51.7323" cy="430.96" width="103.47" height="16.198"/>
			<path d="M8.1 439.06 L95.37 439.06 A8.09885 8.09885 -180 0 0 103.46 430.96 A8.09885 8.09885 -180 0 0 95.37 422.86 L8.1
						 422.86 A8.09885 8.09885 -180 0 0 -0 430.96 A8.09885 8.09885 -180 0 0 8.1 439.06 Z" class="st3"/>
			<text x="21.49" y="433.96" class="st2" v:langID="2052"><v:paragraph v:horizAlign="1"/><v:tabList/>(Animators)</text>		</g>
		<g id="shape35-60" v:mID="35" v:groupContext="shape" transform="translate(239.566,-109.772)">
			<title>圆角矩形.35</title>
			<desc>OnCollisionXXX()</desc>
			<v:userDefs>
				<v:ud v:nameU="CTypeTopLeftSnip" v:prompt="" v:val="VT0(0):5"/>
				<v:ud v:nameU="CTypeTopRightSnip" v:prompt="" v:val="VT0(0):5"/>
				<v:ud v:nameU="CTypeBotLeftSnip" v:prompt="" v:val="VT0(0):5"/>
				<v:ud v:nameU="CTypeBotRightSnip" v:prompt="" v:val="VT0(0):5"/>
				<v:ud v:nameU="CornerLockHoriz" v:prompt="" v:val="VT0(1):5"/>
				<v:ud v:nameU="CornerLockVert" v:prompt="" v:val="VT0(1):5"/>
				<v:ud v:nameU="CornerLockDiag" v:prompt="" v:val="VT0(0):5"/>
				<v:ud v:nameU="TopLeftOffset" v:prompt="" v:val="VT0(0.15748031496063):24"/>
				<v:ud v:nameU="TopRightOffset" v:prompt="" v:val="VT0(0.15748031496063):24"/>
				<v:ud v:nameU="BotLeftOffset" v:prompt="" v:val="VT0(0.15748031496063):24"/>
				<v:ud v:nameU="BotRightOffset" v:prompt="" v:val="VT0(0.15748031496063):24"/>
				<v:ud v:nameU="visVersion" v:prompt="" v:val="VT0(15):26"/>
				<v:ud v:nameU="TopLeftOffset" v:prompt="" v:val="VT0(0.11248593547537):1"/>
				<v:ud v:nameU="TopRightOffset" v:prompt="" v:val="VT0(0.11248593547537):1"/>
				<v:ud v:nameU="BotLeftOffset" v:prompt="" v:val="VT0(0.11248593547537):1"/>
				<v:ud v:nameU="BotRightOffset" v:prompt="" v:val="VT0(0.11248593547537):1"/>
			</v:userDefs>
			<v:textBlock v:margins="rect(4,4,4,4)" v:tabSpace="42.5197"/>
			<v:textRect cx="51.7323" cy="430.96" width="103.47" height="16.198"/>
			<path d="M8.1 439.06 L95.37 439.06 A8.09885 8.09885 -180 0 0 103.46 430.96 A8.09885 8.09885 -180 0 0 95.37 422.86 L8.1
						 422.86 A8.09885 8.09885 -180 0 0 -0 430.96 A8.09885 8.09885 -180 0 0 8.1 439.06 Z" class="st3"/>
			<text x="7.75" y="433.96" class="st2" v:langID="2052"><v:paragraph v:horizAlign="1"/><v:tabList/>OnCollisionXXX()</text>		</g>
		<g id="shape36-63" v:mID="36" v:groupContext="shape" v:layerMember="0" transform="translate(284.212,-244.964)">
			<title>动态连接线.36</title>
			<path d="M7.09 439.06 L7.09 456.27" class="st4"/>
		</g>
		<g id="shape37-66" v:mID="37" v:groupContext="shape" v:layerMember="0" transform="translate(284.212,-211.556)">
			<title>动态连接线.37</title>
			<path d="M7.09 439.06 L7.09 456.27" class="st4"/>
		</g>
		<g id="shape38-69" v:mID="38" v:groupContext="shape" v:layerMember="0" transform="translate(212.921,-319.88)">
			<title>动态连接线.38</title>
			<path d="M0 439.06 L0 444.37 A5.31496 5.31496 -180 0 0 5.31 449.69 L69.87 449.69 A8.50394 8.50394 0 0 1 78.38 458.19
						 L78.38 492.05" class="st5"/>
		</g>
		<g id="shape41-74" v:mID="41" v:groupContext="shape" transform="translate(239.566,-144.233)">
			<title>圆角矩形.41</title>
			<desc>OnTriggerXXX()</desc>
			<v:userDefs>
				<v:ud v:nameU="CTypeTopLeftSnip" v:prompt="" v:val="VT0(0):5"/>
				<v:ud v:nameU="CTypeTopRightSnip" v:prompt="" v:val="VT0(0):5"/>
				<v:ud v:nameU="CTypeBotLeftSnip" v:prompt="" v:val="VT0(0):5"/>
				<v:ud v:nameU="CTypeBotRightSnip" v:prompt="" v:val="VT0(0):5"/>
				<v:ud v:nameU="CornerLockHoriz" v:prompt="" v:val="VT0(1):5"/>
				<v:ud v:nameU="CornerLockVert" v:prompt="" v:val="VT0(1):5"/>
				<v:ud v:nameU="CornerLockDiag" v:prompt="" v:val="VT0(0):5"/>
				<v:ud v:nameU="TopLeftOffset" v:prompt="" v:val="VT0(0.15748031496063):24"/>
				<v:ud v:nameU="TopRightOffset" v:prompt="" v:val="VT0(0.15748031496063):24"/>
				<v:ud v:nameU="BotLeftOffset" v:prompt="" v:val="VT0(0.15748031496063):24"/>
				<v:ud v:nameU="BotRightOffset" v:prompt="" v:val="VT0(0.15748031496063):24"/>
				<v:ud v:nameU="visVersion" v:prompt="" v:val="VT0(15):26"/>
				<v:ud v:nameU="TopLeftOffset" v:prompt="" v:val="VT0(0.11248593547537):1"/>
				<v:ud v:nameU="TopRightOffset" v:prompt="" v:val="VT0(0.11248593547537):1"/>
				<v:ud v:nameU="BotLeftOffset" v:prompt="" v:val="VT0(0.11248593547537):1"/>
				<v:ud v:nameU="BotRightOffset" v:prompt="" v:val="VT0(0.11248593547537):1"/>
			</v:userDefs>
			<v:textBlock v:margins="rect(4,4,4,4)" v:tabSpace="42.5197"/>
			<v:textRect cx="51.7323" cy="430.96" width="103.47" height="16.198"/>
			<path d="M8.1 439.06 L95.37 439.06 A8.09885 8.09885 -180 0 0 103.46 430.96 A8.09885 8.09885 -180 0 0 95.37 422.86 L8.1
						 422.86 A8.09885 8.09885 -180 0 0 -0 430.96 A8.09885 8.09885 -180 0 0 8.1 439.06 Z" class="st3"/>
			<text x="13.25" y="433.96" class="st2" v:langID="2052"><v:paragraph v:horizAlign="1"/><v:tabList/>OnTriggerXXX()</text>		</g>
		<g id="shape45-77" v:mID="45" v:groupContext="shape" v:layerMember="0" transform="translate(284.212,-144.233)">
			<title>动态连接线.45</title>
			<path d="M7.09 439.06 L7.09 457.32" class="st4"/>
		</g>
		<g id="shape46-80" v:mID="46" v:groupContext="shape" transform="translate(239.566,-178.148)">
			<title>圆角矩形.46</title>
			<desc>(Internal Physx)</desc>
			<v:userDefs>
				<v:ud v:nameU="CTypeTopLeftSnip" v:prompt="" v:val="VT0(0):5"/>
				<v:ud v:nameU="CTypeTopRightSnip" v:prompt="" v:val="VT0(0):5"/>
				<v:ud v:nameU="CTypeBotLeftSnip" v:prompt="" v:val="VT0(0):5"/>
				<v:ud v:nameU="CTypeBotRightSnip" v:prompt="" v:val="VT0(0):5"/>
				<v:ud v:nameU="CornerLockHoriz" v:prompt="" v:val="VT0(1):5"/>
				<v:ud v:nameU="CornerLockVert" v:prompt="" v:val="VT0(1):5"/>
				<v:ud v:nameU="CornerLockDiag" v:prompt="" v:val="VT0(0):5"/>
				<v:ud v:nameU="TopLeftOffset" v:prompt="" v:val="VT0(0.15748031496063):24"/>
				<v:ud v:nameU="TopRightOffset" v:prompt="" v:val="VT0(0.15748031496063):24"/>
				<v:ud v:nameU="BotLeftOffset" v:prompt="" v:val="VT0(0.15748031496063):24"/>
				<v:ud v:nameU="BotRightOffset" v:prompt="" v:val="VT0(0.15748031496063):24"/>
				<v:ud v:nameU="visVersion" v:prompt="" v:val="VT0(15):26"/>
				<v:ud v:nameU="TopLeftOffset" v:prompt="" v:val="VT0(0.11248593547537):1"/>
				<v:ud v:nameU="TopRightOffset" v:prompt="" v:val="VT0(0.11248593547537):1"/>
				<v:ud v:nameU="BotLeftOffset" v:prompt="" v:val="VT0(0.11248593547537):1"/>
				<v:ud v:nameU="BotRightOffset" v:prompt="" v:val="VT0(0.11248593547537):1"/>
			</v:userDefs>
			<v:textBlock v:margins="rect(4,4,4,4)" v:tabSpace="42.5197"/>
			<v:textRect cx="51.7323" cy="430.96" width="103.47" height="16.198"/>
			<path d="M8.1 439.06 L95.37 439.06 A8.09885 8.09885 -180 0 0 103.46 430.96 A8.09885 8.09885 -180 0 0 95.37 422.86 L8.1
						 422.86 A8.09885 8.09885 -180 0 0 -0 430.96 A8.09885 8.09885 -180 0 0 8.1 439.06 Z" class="st3"/>
			<text x="7.75" y="433.96" class="st2" v:langID="2052"><v:paragraph v:horizAlign="1"/><v:tabList/>(Internal Physx)</text>		</g>
		<g id="shape48-83" v:mID="48" v:groupContext="shape" v:layerMember="0" transform="translate(284.212,-178.148)">
			<title>动态连接线.48</title>
			<path d="M7.09 439.06 L7.09 456.78" class="st4"/>
		</g>
		<g id="shape49-86" v:mID="49" v:groupContext="shape" v:layerMember="0" transform="translate(284.212,-109.772)">
			<title>动态连接线.49</title>
			<desc>Fixed Timestep</desc>
			<v:textBlock v:margins="rect(4,4,4,4)" v:tabSpace="42.5197"/>
			<v:textRect cx="92.3892" cy="377.069" width="47.59" height="27.2035"/>
			<path d="M7.09 439.06 L7.09 455.82 A8.50394 8.50394 -180 0 0 15.59 464.33 L83.89 464.33 A8.50394 8.50394 -180 0 0 92.39
						 455.82 L92.39 285.54 A8.50394 8.50394 -180 0 0 83.89 277.04 L12.4 277.04 A5.31496 5.31496 -180 0 0 7.09
						 282.35 L7.09 287.67" class="st12"/>
			<rect v:rectContext="textBkgnd" x="74.7957" y="367.469" width="35.187" height="19.1997" class="st7"/>
			<text x="81.39" y="374.67" class="st8" v:langID="2052"><v:paragraph v:horizAlign="1"/><v:tabList/>Fixed<v:lf/><tspan
						x="74.8" dy="1.2em" class="st9">Timestep</tspan></text>		</g>
		<g id="shape7-95" v:mID="7" v:groupContext="shape" transform="translate(82.8103,-244.964)">
			<title>圆角矩形.7</title>
			<desc>Update()</desc>
			<v:userDefs>
				<v:ud v:nameU="CTypeTopLeftSnip" v:prompt="" v:val="VT0(0):5"/>
				<v:ud v:nameU="CTypeTopRightSnip" v:prompt="" v:val="VT0(0):5"/>
				<v:ud v:nameU="CTypeBotLeftSnip" v:prompt="" v:val="VT0(0):5"/>
				<v:ud v:nameU="CTypeBotRightSnip" v:prompt="" v:val="VT0(0):5"/>
				<v:ud v:nameU="CornerLockHoriz" v:prompt="" v:val="VT0(1):5"/>
				<v:ud v:nameU="CornerLockVert" v:prompt="" v:val="VT0(1):5"/>
				<v:ud v:nameU="CornerLockDiag" v:prompt="" v:val="VT0(0):5"/>
				<v:ud v:nameU="TopLeftOffset" v:prompt="" v:val="VT0(0.15748031496063):24"/>
				<v:ud v:nameU="TopRightOffset" v:prompt="" v:val="VT0(0.15748031496063):24"/>
				<v:ud v:nameU="BotLeftOffset" v:prompt="" v:val="VT0(0.15748031496063):24"/>
				<v:ud v:nameU="BotRightOffset" v:prompt="" v:val="VT0(0.15748031496063):24"/>
				<v:ud v:nameU="visVersion" v:prompt="" v:val="VT0(15):26"/>
				<v:ud v:nameU="TopLeftOffset" v:prompt="" v:val="VT0(0.11248593547537):1"/>
				<v:ud v:nameU="TopRightOffset" v:prompt="" v:val="VT0(0.11248593547537):1"/>
				<v:ud v:nameU="BotLeftOffset" v:prompt="" v:val="VT0(0.11248593547537):1"/>
				<v:ud v:nameU="BotRightOffset" v:prompt="" v:val="VT0(0.11248593547537):1"/>
			</v:userDefs>
			<v:textBlock v:margins="rect(4,4,4,4)" v:tabSpace="42.5197"/>
			<v:textRect cx="51.7323" cy="430.96" width="103.47" height="16.198"/>
			<path d="M8.1 439.06 L95.37 439.06 A8.09885 8.09885 -180 0 0 103.46 430.96 A8.09885 8.09885 -180 0 0 95.37 422.86 L8.1
						 422.86 A8.09885 8.09885 -180 0 0 -0 430.96 A8.09885 8.09885 -180 0 0 8.1 439.06 Z" class="st3"/>
			<text x="29.74" y="433.96" class="st2" v:langID="2052"><v:paragraph v:horizAlign="1"/><v:tabList/>Update()</text>		</g>
		<g id="shape33-98" v:mID="33" v:groupContext="shape" transform="translate(239.566,-244.964)">
			<title>圆角矩形.33</title>
			<desc>FixedUpdate()</desc>
			<v:userDefs>
				<v:ud v:nameU="CTypeTopLeftSnip" v:prompt="" v:val="VT0(0):5"/>
				<v:ud v:nameU="CTypeTopRightSnip" v:prompt="" v:val="VT0(0):5"/>
				<v:ud v:nameU="CTypeBotLeftSnip" v:prompt="" v:val="VT0(0):5"/>
				<v:ud v:nameU="CTypeBotRightSnip" v:prompt="" v:val="VT0(0):5"/>
				<v:ud v:nameU="CornerLockHoriz" v:prompt="" v:val="VT0(1):5"/>
				<v:ud v:nameU="CornerLockVert" v:prompt="" v:val="VT0(1):5"/>
				<v:ud v:nameU="CornerLockDiag" v:prompt="" v:val="VT0(0):5"/>
				<v:ud v:nameU="TopLeftOffset" v:prompt="" v:val="VT0(0.15748031496063):24"/>
				<v:ud v:nameU="TopRightOffset" v:prompt="" v:val="VT0(0.15748031496063):24"/>
				<v:ud v:nameU="BotLeftOffset" v:prompt="" v:val="VT0(0.15748031496063):24"/>
				<v:ud v:nameU="BotRightOffset" v:prompt="" v:val="VT0(0.15748031496063):24"/>
				<v:ud v:nameU="visVersion" v:prompt="" v:val="VT0(15):26"/>
				<v:ud v:nameU="TopLeftOffset" v:prompt="" v:val="VT0(0.11248593547537):1"/>
				<v:ud v:nameU="TopRightOffset" v:prompt="" v:val="VT0(0.11248593547537):1"/>
				<v:ud v:nameU="BotLeftOffset" v:prompt="" v:val="VT0(0.11248593547537):1"/>
				<v:ud v:nameU="BotRightOffset" v:prompt="" v:val="VT0(0.11248593547537):1"/>
			</v:userDefs>
			<v:textBlock v:margins="rect(4,4,4,4)" v:tabSpace="42.5197"/>
			<v:textRect cx="51.7323" cy="430.96" width="103.47" height="16.198"/>
			<path d="M8.1 439.06 L95.37 439.06 A8.09885 8.09885 -180 0 0 103.46 430.96 A8.09885 8.09885 -180 0 0 95.37 422.86 L8.1
						 422.86 A8.09885 8.09885 -180 0 0 -0 430.96 A8.09885 8.09885 -180 0 0 8.1 439.06 Z" class="st3"/>
			<text x="15.99" y="433.96" class="st2" v:langID="2052"><v:paragraph v:horizAlign="1"/><v:tabList/>FixedUpdate()</text>		</g>
		<g id="shape51-101" v:mID="51" v:groupContext="shape" v:layerMember="0" transform="translate(291.298,-96.7529)">
			<title>动态连接线.51</title>
			<path d="M0 439.06 L0 444.92 A5.85826 5.85826 0 0 1 -5.86 450.78 L-70.02 450.78 A8.50394 8.50394 0 0 1 -78.52 442.27
						 L-78.52 249.85 A8.50394 8.50394 -180 0 0 -87.02 241.34 L-151.44 241.34 A5.31496 5.31496 -180 0 0 -156.76
						 246.66 L-156.76 251.97" class="st13"/>
		</g>
		<g id="shape56-104" v:mID="56" v:groupContext="shape" transform="translate(161.472,-33.7833)">
			<title>圆角矩形.56</title>
			<desc>OnDisable()</desc>
			<v:userDefs>
				<v:ud v:nameU="CTypeTopLeftSnip" v:prompt="" v:val="VT0(0):5"/>
				<v:ud v:nameU="CTypeTopRightSnip" v:prompt="" v:val="VT0(0):5"/>
				<v:ud v:nameU="CTypeBotLeftSnip" v:prompt="" v:val="VT0(0):5"/>
				<v:ud v:nameU="CTypeBotRightSnip" v:prompt="" v:val="VT0(0):5"/>
				<v:ud v:nameU="CornerLockHoriz" v:prompt="" v:val="VT0(1):5"/>
				<v:ud v:nameU="CornerLockVert" v:prompt="" v:val="VT0(1):5"/>
				<v:ud v:nameU="CornerLockDiag" v:prompt="" v:val="VT0(0):5"/>
				<v:ud v:nameU="TopLeftOffset" v:prompt="" v:val="VT0(0.15748031496063):24"/>
				<v:ud v:nameU="TopRightOffset" v:prompt="" v:val="VT0(0.15748031496063):24"/>
				<v:ud v:nameU="BotLeftOffset" v:prompt="" v:val="VT0(0.15748031496063):24"/>
				<v:ud v:nameU="BotRightOffset" v:prompt="" v:val="VT0(0.15748031496063):24"/>
				<v:ud v:nameU="visVersion" v:prompt="" v:val="VT0(15):26"/>
				<v:ud v:nameU="TopLeftOffset" v:prompt="" v:val="VT0(0.11248593547537):1"/>
				<v:ud v:nameU="TopRightOffset" v:prompt="" v:val="VT0(0.11248593547537):1"/>
				<v:ud v:nameU="BotLeftOffset" v:prompt="" v:val="VT0(0.11248593547537):1"/>
				<v:ud v:nameU="BotRightOffset" v:prompt="" v:val="VT0(0.11248593547537):1"/>
			</v:userDefs>
			<v:textBlock v:margins="rect(4,4,4,4)" v:tabSpace="42.5197"/>
			<v:textRect cx="51.7323" cy="430.96" width="103.47" height="16.198"/>
			<path d="M8.1 439.06 L95.37 439.06 A8.09885 8.09885 -180 0 0 103.46 430.96 A8.09885 8.09885 -180 0 0 95.37 422.86 L8.1
						 422.86 A8.09885 8.09885 -180 0 0 -0 430.96 A8.09885 8.09885 -180 0 0 8.1 439.06 Z" class="st3"/>
			<text x="21.49" y="433.96" class="st2" v:langID="2052"><v:paragraph v:horizAlign="1"/><v:tabList/>OnDisable()</text>		</g>
		<g id="shape57-107" v:mID="57" v:groupContext="shape" transform="translate(161.472,-0.375)">
			<title>圆角矩形.57</title>
			<desc>OnDestroy()</desc>
			<v:userDefs>
				<v:ud v:nameU="CTypeTopLeftSnip" v:prompt="" v:val="VT0(0):5"/>
				<v:ud v:nameU="CTypeTopRightSnip" v:prompt="" v:val="VT0(0):5"/>
				<v:ud v:nameU="CTypeBotLeftSnip" v:prompt="" v:val="VT0(0):5"/>
				<v:ud v:nameU="CTypeBotRightSnip" v:prompt="" v:val="VT0(0):5"/>
				<v:ud v:nameU="CornerLockHoriz" v:prompt="" v:val="VT0(1):5"/>
				<v:ud v:nameU="CornerLockVert" v:prompt="" v:val="VT0(1):5"/>
				<v:ud v:nameU="CornerLockDiag" v:prompt="" v:val="VT0(0):5"/>
				<v:ud v:nameU="TopLeftOffset" v:prompt="" v:val="VT0(0.15748031496063):24"/>
				<v:ud v:nameU="TopRightOffset" v:prompt="" v:val="VT0(0.15748031496063):24"/>
				<v:ud v:nameU="BotLeftOffset" v:prompt="" v:val="VT0(0.15748031496063):24"/>
				<v:ud v:nameU="BotRightOffset" v:prompt="" v:val="VT0(0.15748031496063):24"/>
				<v:ud v:nameU="visVersion" v:prompt="" v:val="VT0(15):26"/>
				<v:ud v:nameU="TopLeftOffset" v:prompt="" v:val="VT0(0.11248593547537):1"/>
				<v:ud v:nameU="TopRightOffset" v:prompt="" v:val="VT0(0.11248593547537):1"/>
				<v:ud v:nameU="BotLeftOffset" v:prompt="" v:val="VT0(0.11248593547537):1"/>
				<v:ud v:nameU="BotRightOffset" v:prompt="" v:val="VT0(0.11248593547537):1"/>
			</v:userDefs>
			<v:textBlock v:margins="rect(4,4,4,4)" v:tabSpace="42.5197"/>
			<v:textRect cx="51.7323" cy="430.96" width="103.47" height="16.198"/>
			<path d="M8.1 439.06 L95.37 439.06 A8.09885 8.09885 -180 0 0 103.46 430.96 A8.09885 8.09885 -180 0 0 95.37 422.86 L8.1
						 422.86 A8.09885 8.09885 -180 0 0 -0 430.96 A8.09885 8.09885 -180 0 0 8.1 439.06 Z" class="st3"/>
			<text x="21.49" y="433.96" class="st2" v:langID="2052"><v:paragraph v:horizAlign="1"/><v:tabList/>OnDestroy()</text>		</g>
		<g id="shape58-110" v:mID="58" v:groupContext="shape" v:layerMember="0" transform="translate(206.117,-33.7833)">
			<title>动态连接线.58</title>
			<path d="M7.09 439.06 L7.09 456.27" class="st4"/>
		</g>
		<g id="shape59-113" v:mID="59" v:groupContext="shape" v:layerMember="0" transform="translate(134.543,-95.0522)">
			<title>动态连接线.59</title>
			<path d="M0 439.06 L0 448.27 A8.50394 8.50394 -180 0 0 8.5 456.78 L70.16 456.78 A8.50394 8.50394 0 0 1 78.66 465.28 L78.66
						 478.41" class="st5"/>
		</g>
		<g id="shape60-118" v:mID="60" v:groupContext="shape" v:layerMember="0" transform="translate(284.212,-89.6663)">
			<title>动态连接线.60</title>
		</g>
		<g id="shape61-119" v:mID="61" v:groupContext="shape" v:layerMember="0" transform="translate(271.881,-41.8823)">
			<title>动态连接线.61</title>
			<path d="M-6.94 439.06 L120.05 439.06 A8.50394 8.50394 -180 0 0 128.55 430.56 L128.55 128.06 A8.50394 8.50394 -180 0
						 0 120.05 119.55 L-2.77 119.55" class="st14"/>
		</g>
		<g id="shape62-125" v:mID="62" v:groupContext="shape" transform="translate(32.3052,-350.656)">
			<title>工作表.62</title>
			<desc>Unity MonoBehaviour Main Lifecycle</desc>
			<v:textBlock v:margins="rect(4,4,4,4)" v:tabSpace="42.5197"/>
			<v:textRect cx="60.7098" cy="416.24" width="121.42" height="45.6378"/>
			<rect x="0" y="393.421" width="121.42" height="45.6378" class="st10"/>
			<text x="27.09" y="403.64" class="st16" v:langID="2052"><v:paragraph/><v:tabList/>Unity <v:newlineChar/><tspan x="4"
						dy="1.2em" class="st9">MonoBehaviour<v:newlineChar/></tspan><tspan x="4" dy="1.2em" class="st9">Main Lifecycle</tspan></text>		</g>
		<g id="group63-130" transform="translate(38.25,-382.266)" v:mID="63" v:groupContext="group">
			<title>工作表.63</title>
			<g id="group64-131" v:mID="64" v:groupContext="group">
				<title>工作表.64</title>
				<g id="shape65-132" v:mID="65" v:groupContext="shape">
					<title>工作表.65</title>
					<path d="M8.92 423.88 L11.82 425.62 C11.94 425.73 11.94 425.85 11.82 425.85 L8.34 427.82 C8.23 427.93 8.11 427.82
								 8 427.82 L4.52 425.85 C4.4 425.85 4.4 425.62 4.52 425.62 L7.42 423.88 L7.42 420.52 L0 424.8 L0 433.5
								 L2.9 431.87 L2.9 428.4 C2.9 428.28 3.01 428.17 3.13 428.28 L6.61 430.25 C6.72 430.37 6.72 430.37
								 6.72 430.48 L6.72 434.54 C6.72 434.66 6.61 434.77 6.49 434.66 L3.59 432.92 L0.7 434.54 L8.23 439.06
								 L15.76 434.77 L12.86 433.15 L9.97 434.89 C9.85 435 9.74 434.89 9.74 434.77 L9.74 430.6 C9.74 430.48
								 9.85 430.37 9.85 430.37 L13.33 428.4 C13.44 428.28 13.56 428.4 13.56 428.51 L13.56 431.87 L16.46
								 433.5 L16.46 424.8 L8.92 420.52 L8.92 423.88 Z" class="st17"/>
				</g>
			</g>
		</g>
		<g id="shape1000-134" v:mID="1000" v:groupContext="shape" transform="translate(32.9205,-331.168)">
			<title>工作表.1000</title>
			<desc>Made by AdorN, 2025.1.20</desc>
			<v:textBlock v:margins="rect(4,4,4,4)" v:tabSpace="42.5197"/>
			<v:textRect cx="63.9921" cy="430.96" width="127.99" height="16.198"/>
			<rect x="0" y="422.861" width="127.984" height="16.198" class="st10"/>
			<text x="4" y="433.36" class="st8" v:langID="2052"><v:paragraph/><v:tabList/>Made by AdorN, 2025.1.20</text>		</g>
	</g>
</svg>
